<mxfile host="app.diagrams.net" modified="2024-12-09T08:33:51.804Z" agent="Mozilla/5.0 (Windows NT 10.0; Win64; x64) AppleWebKit/537.36 (KHTML, like Gecko) Chrome/131.0.0.0 Safari/537.36" version="24.0.2" etag="8v4VVLLlKXShkJ_taC2V" type="github">
  <diagram name="Page-1" id="_-QkqPLS-UlHp8r5HWIy">
    <mxGraphModel>
      <root>
        <mxCell id="0" />
        <mxCell id="1" parent="0" />
      </root>
    </mxGraphModel>
  </diagram>
</mxfile>
